# Blender v2.77 (sub 0) OBJ File: ''
# www.blender.org
mtllib gem.mtl
o Cone
v 0.000000 0.327913 1.000000
v 0.500000 0.327913 0.866025
v 0.866025 0.327913 0.500000
v 1.000000 0.327913 0.000000
v 0.866025 0.327913 -0.500000
v 0.500000 0.327913 -0.866025
v 0.000000 0.327913 -1.000000
v 0.000000 -0.327913 -0.000000
v -0.500000 0.327913 -0.866025
v -0.866025 0.327913 -0.500000
v -1.000000 0.327913 -0.000000
v -0.866026 0.327913 0.500000
v -0.500001 0.327913 0.866025
v 0.000000 0.528501 0.743831
v 0.371915 0.528501 0.644176
v 0.644176 0.528501 0.371915
v 0.743831 0.528501 0.000000
v 0.644176 0.528501 -0.371915
v 0.371915 0.528501 -0.644176
v 0.000000 0.528501 -0.743831
v -0.371915 0.528501 -0.644176
v -0.644176 0.528501 -0.371915
v -0.743831 0.528501 -0.000000
v -0.644176 0.528501 0.371915
v -0.371916 0.528501 0.644176
vn 0.1454 -0.8273 0.5426
vn 0.3972 -0.8273 0.3972
vn 0.5426 -0.8273 0.1454
vn 0.5426 -0.8273 -0.1454
vn 0.3972 -0.8273 -0.3972
vn 0.1454 -0.8273 -0.5426
vn -0.1454 -0.8273 -0.5426
vn -0.3972 -0.8273 -0.3972
vn -0.5426 -0.8273 -0.1454
vn -0.5426 -0.8273 0.1454
vn -0.3972 -0.8273 0.3972
vn -0.1454 -0.8273 0.5426
vn 0.6083 0.7768 -0.1630
vn -0.0000 1.0000 0.0000
vn -0.1630 0.7768 -0.6083
vn 0.1630 0.7768 -0.6083
vn -0.6083 0.7768 -0.1630
vn -0.4453 0.7768 0.4453
vn 0.6083 0.7768 0.1630
vn 0.4453 0.7768 -0.4453
vn -0.4453 0.7768 -0.4453
vn -0.1630 0.7768 0.6083
vn -0.6083 0.7768 0.1630
vn 0.4453 0.7768 0.4453
vn 0.1630 0.7768 0.6083
usemtl None
s off
f 1//1 8//1 2//1
f 2//2 8//2 3//2
f 3//3 8//3 4//3
f 4//4 8//4 5//4
f 5//5 8//5 6//5
f 6//6 8//6 7//6
f 7//7 8//7 9//7
f 9//8 8//8 10//8
f 10//9 8//9 11//9
f 11//10 8//10 12//10
f 12//11 8//11 13//11
f 13//12 8//12 1//12
f 4//13 5//13 18//13 17//13
f 14//14 15//14 16//14 17//14 18//14 19//14 20//14 21//14 22//14 23//14 24//14 25//14
f 7//15 9//15 21//15 20//15
f 6//16 7//16 20//16 19//16
f 10//17 11//17 23//17 22//17
f 12//18 13//18 25//18 24//18
f 3//19 4//19 17//19 16//19
f 5//20 6//20 19//20 18//20
f 9//21 10//21 22//21 21//21
f 13//22 1//22 14//22 25//22
f 11//23 12//23 24//23 23//23
f 2//24 3//24 16//24 15//24
f 1//25 2//25 15//25 14//25
